<svg height="464pt" viewBox="-1 0 464 464.01332" width="464pt" xmlns="http://www.w3.org/2000/svg"><path d="m114 393.988281 2.796875 14.015625h18.898437l2.800782-14.015625-12.25 7.34375zm0 0"/><path d="m158.246094 359.347656c-9.421875 5.472656-20.335938 8.65625-32 8.65625-11.664063 0-22.574219-3.183594-32-8.65625v4.128906l32 19.199219 32-19.199219zm0 0"/><path d="m174.246094 304.003906v-35.398437c-17.664063 7.464843-36.832032 11.398437-56 11.398437h-8v-12.894531l-32 10.664063v26.238281c0 26.472656 21.527344 48 48 48s48-21.535157 48-48.007813zm0 0"/><path d="m190.246094 301.78125c4.761718-2.777344 8-7.878906 8-13.777344 0-5.894531-3.238282-11-8-13.773437zm0 0"/><path d="m207.269531 213.691406c4.953125-9.007812 13.199219-15.902344 23.402344-18.972656l55.574219-16.664062v-6.714844c-8.609375-8.636719-14.238282-15.933594-15.648438-28.65625-14.894531-5.230469-24.351562-24.972656-24.351562-38.679688v-32c0-14.007812 3.488281-27.703125 9.769531-40h-177.769531v142.34375c13.816406-9.039062 30.289062-14.335937 48-14.335937 36.351562-.007813 67.625 22.160156 81.023437 53.679687zm-81.023437-157.6875h104v16h-104zm-32 0h16v16h-16zm0 32h136v16h-136zm0 32h136v16h-136zm0 0"/><path d="m62.246094 248.003906h16v12.90625l48-16.007812v18.839844c16.617187-1.058594 33.039062-5.441407 48-12.753907v-2.992187h16v9.136718c2.847656.738282 5.519531 1.863282 8 3.3125v-12.449218c0-39.703125-32.296875-72-72-72s-72 32.296875-72 72v12.449218c2.480468-1.449218 5.152344-2.574218 8-3.3125zm0 0"/><path d="m62.246094 301.78125v-27.542969c-4.757813 2.773438-8 7.878907-8 13.773438 0 5.898437 3.242187 10.992187 8 13.769531zm0 0"/><path d="m411.824219 32.003906c6.628906 12.785156 10.421875 27.335938 10.421875 42.746094v29.253906c0 13.707032-9.457032 33.449219-24.351563 38.679688-1.40625 12.722656-7.039062 20.019531-15.648437 28.65625v6.714844l55.511718 16.65625c10.929688 3.269531 19.679688 10.886718 24.488282 20.8125v-183.519532zm0 0"/><path d="m433.167969 210.039062-66.921875-20.082031v-25.320312l2.410156-2.351563c10.09375-9.886718 13.589844-13.9375 13.589844-26.28125v-8h8c7.730468 0 16-14.085937 16-24v-29.253906c0-39.382812-29.511719-72.144531-67.183594-74.585938-20.191406-1.34375-39.367188 5.546876-54.039062 19.304688-14.6875 13.769531-22.777344 32.425781-22.777344 52.535156v32c0 9.914063 8.273437 24 16 24h8v8c0 12.34375 3.496094 16.394532 13.59375 26.28125l2.40625 2.351563v25.320312l-66.96875 20.089844c-8.65625 2.597656-15.039063 9.757813-16.671875 18.6875l-4.359375 23.976563v35.300781h246.417968l-10.777343-59.277344c-1.632813-8.929687-8.03125-16.097656-16.71875-18.695313zm-98.921875-130.035156c13.234375 0 24 10.769532 24 24 0 10.417969-6.710938 19.21875-16 22.53125v9.46875h-16v-9.46875c-9.289063-3.3125-16-12.113281-16-22.53125h16c0 4.417969 3.585937 8 8 8 4.417968 0 8-3.582031 8-8 0-4.414062-3.582032-8-8-8-13.230469 0-24-10.765625-24-24 0-10.414062 6.710937-19.214844 16-22.527344v-9.472656h16v9.472656c9.289062 3.3125 16 12.113282 16 22.527344h-16c0-4.414062-3.582032-8-8-8-4.414063 0-8 3.585938-8 8 0 4.417969 3.585937 8 8 8zm0 0"/><path d="m85.160156 376.683594-58.210937 17.464844c-8.511719 2.554687-14.894531 9.554687-16.636719 18.28125l-10.3046875 51.574218h47.3046875l7.015625-49.132812 15.839844 2.261718-6.699219 46.863282h31.832031l6.824219-47.789063-6.671875-33.355469zm0 0"/><path d="m225.535156 394.148438-58.207031-17.464844-10.296875 6.175781-6.671875 33.355469 6.824219 47.789062h31.832031l-6.695313-46.863281 15.839844-2.261719 7.015625 49.132813h47.304688l-10.3125-51.574219c-1.738281-8.734375-8.113281-15.734375-16.632813-18.289062zm0 0"/><path d="m117.191406 424.003906-5.722656 40h29.554688l-5.722657-40zm0 0"/></svg>